# xmcd CD database file
#
# Track frame offsets:
#	150
#	19477
#	42567
#	61672
#	87270
#	105255
#	127507
#	143110
#	161897
#	181630
#	197050
#
# Disc length: 2932 seconds
#
# Revision: 17
# Processed by: cddbd v1.5.2PL0 Copyright (c) Steve Scherf et al.
# Submitted via: CDex 1.70beta2
#
DISCID=870b720b
DTITLE=Lara Fabian - Pure
DYEAR=1997
DGENRE=Chanson
TTITLE0=Lara Fabian - Tout
TTITLE1=Lara Fabian - J'ai Zappé
TTITLE2=Lara Fabian - La Différence
TTITLE3=Lara Fabian - Humana
TTITLE4=Lara Fabian - Urgent Désir
TTITLE5=Lara Fabian - Les Amoureux De L'an Deux Mille
TTITLE6=Lara Fabian - Ici
TTITLE7=Lara Fabian - Alléluia
TTITLE8=Lara Fabian - Je T'aime
TTITLE9=Lara Fabian - Je T'appartiens
TTITLE10=Lara Fabian - Perdere L'amore
EXTD=YEAR: 1997
EXTT0=
EXTT1=
EXTT2=
EXTT3=
EXTT4=
EXTT5=
EXTT6=
EXTT7=
EXTT8=
EXTT9=
EXTT10=
PLAYORDER=
